HIERARCHY
ROOT Hips
{
  OFFSET -4.35178 90.3298 111.633
  CHANNELS 6 Xposition Yposition Zposition Zrotation Xrotation Yrotation
  JOINT LeftUpLeg
  {
    OFFSET 0.103456 1.85784 10.5485
    CHANNELS 6 Xposition Yposition Zposition Zrotation Xrotation Yrotation
    JOINT LeftLeg
    {
      OFFSET 43.5 -4.2e-05 0
      CHANNELS 6 Xposition Yposition Zposition Zrotation Xrotation Yrotation
      JOINT LeftFoot
      {
        OFFSET 42.3722 1.9e-05 0
        CHANNELS 6 Xposition Yposition Zposition Zrotation Xrotation Yrotation
        JOINT LeftToe
        {
          OFFSET 17.3 0 0
          CHANNELS 6 Xposition Yposition Zposition Zrotation Xrotation Yrotation
          End Site
          {
            OFFSET 0 0 0
          }
        }
      }
    }
  }
  JOINT RightUpLeg
  {
    OFFSET 0.103456 1.85782 -10.5485
    CHANNELS 6 Xposition Yposition Zposition Zrotation Xrotation Yrotation
    JOINT RightLeg
    {
      OFFSET 43.5 -2.7e-05 0
      CHANNELS 6 Xposition Yposition Zposition Zrotation Xrotation Yrotation
      JOINT RightFoot
      {
        OFFSET 42.3723 0 0
        CHANNELS 6 Xposition Yposition Zposition Zrotation Xrotation Yrotation
        JOINT RightToe
        {
          OFFSET 17.3 0 1.7e-05
          CHANNELS 6 Xposition Yposition Zposition Zrotation Xrotation Yrotation
          End Site
          {
            OFFSET 0 0 0
          }
        }
      }
    }
  }
  JOINT Spine
  {
    OFFSET 6.90197 -2.60373 0
    CHANNELS 6 Xposition Yposition Zposition Zrotation Xrotation Yrotation
    JOINT Spine1
    {
      OFFSET 12.5881 0 0
      CHANNELS 6 Xposition Yposition Zposition Zrotation Xrotation Yrotation
      JOINT Spine2
      {
        OFFSET 12.3432 -1.8e-05 0
        CHANNELS 6 Xposition Yposition Zposition Zrotation Xrotation Yrotation
        JOINT Neck
        {
          OFFSET 25.8329 2.3e-05 0
          CHANNELS 6 Xposition Yposition Zposition Zrotation Xrotation Yrotation
          JOINT Head
          {
            OFFSET 11.7666 0 0
            CHANNELS 6 Xposition Yposition Zposition Zrotation Xrotation Yrotation
            End Site
            {
              OFFSET 0 0 0
            }
          }
        }
        JOINT LeftShoulder
        {
          OFFSET 19.7459 -1.48035 6.0001
          CHANNELS 6 Xposition Yposition Zposition Zrotation Xrotation Yrotation
          JOINT LeftArm
          {
            OFFSET 11.2841 1.8e-05 -2e-05
            CHANNELS 6 Xposition Yposition Zposition Zrotation Xrotation Yrotation
            JOINT LeftForeArm
            {
              OFFSET 33 -1.3e-05 1.9e-05
              CHANNELS 6 Xposition Yposition Zposition Zrotation Xrotation Yrotation
              JOINT LeftHand
              {
                OFFSET 25.2 3.2e-05 1.1e-05
                CHANNELS 6 Xposition Yposition Zposition Zrotation Xrotation Yrotation
                End Site
                {
                  OFFSET 0 0 0
                }
              }
            }
          }
        }
        JOINT RightShoulder
        {
          OFFSET 19.7461 -1.48036 -6.00008
          CHANNELS 6 Xposition Yposition Zposition Zrotation Xrotation Yrotation
          JOINT RightArm
          {
            OFFSET 11.2841 0 0
            CHANNELS 6 Xposition Yposition Zposition Zrotation Xrotation Yrotation
            JOINT RightForeArm
            {
              OFFSET 33.0001 1.6e-05 0
              CHANNELS 6 Xposition Yposition Zposition Zrotation Xrotation Yrotation
              JOINT RightHand
              {
                OFFSET 25.1998 0.000123 0.000432
                CHANNELS 6 Xposition Yposition Zposition Zrotation Xrotation Yrotation
                End Site
                {
                  OFFSET 0 0 0
                }
              }
            }
          }
        }
      }
    }
  }
}
MOTION
Frames:	8
Frame Time:	0.0333333
67.2011 144.35 78.423 106.595 -72.8914 17.9411 0.103456 1.85784 10.5485 -36.64 12.3593 -167.053 43.5 -4.2e-05 1e-05 -93.9329 -9.50984 -0.233409 42.3722 1.9e-05 0 67.0149 12.0534 17.6187 17.3 1.42109e-14 3e-06 21.4546 -1e-06 0.003093 0.103456 1.85782 -10.5485 -44.6865 -12.8206 178.813 43.5 -2.7e-05 4e-06 -75.7615 15.9094 -0.516329 42.3723 0 1e-05 99.1816 8.71813 -17.5968 17.3 -6e-06 1.7e-05 21.4546 -1.9e-05 -0.003116 6.90197 -2.60373 -3e-06 23.1997 -2.67282 -0.417121 12.5881 1e-05 8e-06 36.4905 -4.92535 0.277511 12.3432 -1.8e-05 -5e-06 36.2474 -4.35912 0.514703 25.8329 2.3e-05 7e-06 3.99886 -0.548452 -6.77122 11.7666 -8e-06 -6e-06 -61.6403 -11.3629 5.80501 19.7459 -1.48035 6.0001 -163.442 27.9357 -117.949 11.2841 1.8e-05 -2e-05 28.1215 -48.0918 68.4938 33 -1.3e-05 1.9e-05 -45.0369 -2.43845 -10.1457 25.2 3.2e-05 1.1e-05 -3.15843 36.941 -9.95132 19.7461 -1.48036 -6.00008 -164.904 -19.891 108.437 11.2841 0 -1e-06 -27.8893 40.3309 -24.309 33.0001 1.6e-05 -1e-06 -70.0686 -10.5238 20.4685 25.1998 0.000123 0.000432 -28.0938 -31.8432 22.2237 
66.8358 145.114 76.7034 103.482 -71.7593 14.3655 0.103456 1.85784 10.5485 -38.7461 11.4955 -166.002 43.5 -4.2e-05 1e-05 -96.0532 -9.06553 1.15115 42.3722 1.9e-05 0 72.2039 12.2281 15.0062 17.3 0 3e-06 21.4546 -1e-06 0.003093 0.103456 1.85782 -10.5485 -41.7133 -12.5564 178.738 43.5 -2.7e-05 4e-06 -74.6267 15.3875 0.653033 42.3723 0 1e-05 99.6171 9.66434 -18.0933 17.3 -6e-06 1.7e-05 21.4546 -1.9e-05 -0.003116 6.90197 -2.60373 -3e-06 22.6786 -2.4794 -0.212793 12.5881 1e-05 8e-06 35.4409 -4.48397 0.575175 12.3432 -1.8e-05 -5e-06 35.1888 -3.91472 0.790589 25.8329 2.3e-05 7e-06 5.66761 -0.68205 -6.59221 11.7666 -8e-06 -6e-06 -61.3685 -10.278 6.87106 19.7459 -1.48035 6.0001 -164.942 29.2021 -115.59 11.2841 1.8e-05 -2e-05 24.0223 -41.2725 68.7889 33 -1.3e-05 1.9e-05 -44.0177 1.33099 -11.2807 25.2 3.2e-05 1.1e-05 -2.86924 37.5485 -10.2344 19.7461 -1.48036 -6.00008 -164.877 -22.658 106.457 11.2841 -2.84217e-14 -1e-06 -26.5874 35.9298 -26.8414 33.0001 1.6e-05 -1e-06 -64.8183 -11.4359 20.7081 25.1998 0.000123 0.000432 -26.8882 -30.2085 21.2129 
66.0914 146.203 75.5557 101.681 -70.7153 12.6864 0.103456 1.85784 10.5485 -40.8675 11.2327 -166.155 43.5 -4.2e-05 1e-05 -95.2067 -7.86172 2.08875 42.3722 1.9e-05 0 74.8386 10.1479 14.0335 17.3 0 3e-06 21.4546 -1e-06 0.003093 0.103456 1.85782 -10.5485 -39.3613 -12.1271 177.315 43.5 -2.7e-05 4e-06 -73.0572 14.2295 2.38939 42.3723 0 1e-05 99.4007 9.75826 -18.6793 17.3 -6e-06 1.7e-05 21.4546 -1.9e-05 -0.003116 6.90197 -2.60373 -3e-06 22.3553 -2.4231 -0.0551348 12.5881 1e-05 8e-06 34.7943 -4.32236 0.847563 12.3432 -1.8e-05 -5e-06 34.5383 -3.7456 1.05624 25.8329 2.3e-05 7e-06 6.09522 -1.25325 -6.39174 11.7666 -8e-06 -6e-06 -60.7014 -10.2543 6.81402 19.7459 -1.48035 6.0001 -165.435 29.6062 -113.286 11.2841 1.8e-05 -2e-05 21.4124 -37.0254 69.1799 33 -1.3e-05 1.9e-05 -42.6212 3.04899 -12.0608 25.2 3.2e-05 1.1e-05 -3.33029 37.2939 -9.66835 19.7461 -1.48036 -6.00008 -164.679 -23.6565 106.533 11.2841 -2.84217e-14 -1e-06 -25.58 34.2539 -29.9647 33.0001 1.6e-05 -1e-06 -60.2611 -11.3601 20.5994 25.1998 0.000123 0.000432 -25.3779 -28.2678 19.913 
65.1527 147.271 74.4625 101.071 -69.4979 12.0854 0.103456 1.85784 10.5485 -42.907 11.1062 -166.438 43.5 -4.2e-05 1e-05 -92.069 -6.28431 2.52575 42.3722 1.9e-05 0 76.6625 6.81578 14.3836 17.3 -7.10543e-15 3e-06 21.4546 -1e-06 0.003093 0.103456 1.85782 -10.5485 -37.3266 -11.7688 175.665 43.5 -2.7e-05 4e-06 -71.4203 13.1361 4.42709 42.3723 -1.42109e-14 1e-05 99.0366 9.5405 -19.2019 17.3 -6e-06 1.7e-05 21.4546 -1.9e-05 -0.003116 6.90197 -2.60373 -3e-06 21.9812 -2.32308 0.144354 12.5881 1e-05 8e-06 34.044 -4.0629 1.18357 12.3432 -1.8e-05 -5e-06 33.7819 -3.47639 1.37974 25.8329 2.3e-05 7e-06 6.27172 -1.67281 -6.10473 11.7666 -8e-06 -6e-06 -60.199 -10.0364 6.98188 19.7459 -1.48035 6.0001 -166.289 29.4495 -110.822 11.2841 1.8e-05 -2e-05 19.9448 -33.9159 70.764 33 -1.3e-05 1.9e-05 -41.1836 3.46946 -12.6316 25.2 3.2e-05 1.1e-05 -2.92595 36.2873 -8.89398 19.7461 -1.48036 -6.00008 -164.79 -23.9679 105.986 11.2841 0 -1e-06 -24.7605 31.3131 -32.245 33.0001 1.6e-05 -1e-06 -58.0931 -10.2284 20.1461 25.1998 0.000123 0.000432 -21.8798 -27.6889 19.7313 
64.1232 148.434 73.2256 100.764 -68.4152 11.7531 0.103456 1.85784 10.5485 -44.0233 11.0028 -166.636 43.5 -4.2e-05 1e-05 -86.6403 -4.58089 2.22232 42.3722 1.9e-05 3.55271e-15 78.1888 3.29261 15.2751 17.3 -7.10543e-15 3e-06 21.4546 -1e-06 0.003093 0.103456 1.85782 -10.5485 -34.9205 -11.5179 174.323 43.5 -2.7e-05 4e-06 -69.168 12.4346 6.22615 42.3723 0 1e-05 98.701 9.48695 -19.4774 17.3 -6e-06 1.7e-05 21.4546 -1.9e-05 -0.003116 6.90197 -2.60373 -3e-06 21.4561 -2.17238 0.381006 12.5881 1e-05 8e-06 32.9884 -3.6985 1.56994 12.3432 -1.8e-05 -5e-06 32.7181 -3.10371 1.74856 25.8329 2.3e-05 7e-06 7.05762 -2.52626 -5.87057 11.7666 -8e-06 -6e-06 -59.3733 -9.9369 6.92983 19.7459 -1.48035 6.0001 -167.212 29.8232 -107.673 11.2841 1.8e-05 -2e-05 18.1941 -30.9645 71.6361 33 -1.3e-05 1.9e-05 -39.5832 3.52842 -13.5425 25.2 3.2e-05 1.1e-05 -2.33907 34.7438 -7.85372 19.7461 -1.48036 -6.00008 -165.653 -24.9293 104.434 11.2841 -2.84217e-14 -1e-06 -24.6377 28.1629 -34.1324 33.0001 1.6e-05 -1e-06 -53.5863 -11.1913 20.7926 25.1998 0.000123 0.000432 -22.7833 -26.5213 18.8211 
63.0007 149.708 72.6631 102.358 -68.9945 13.3959 0.103456 1.85784 10.5485 -44.506 10.7401 -166.478 43.5 -4.2e-05 1e-05 -79.4103 -2.64092 0.560994 42.3722 1.9e-05 0 78.8428 1.3185 14.6564 17.3 -3.55271e-15 3e-06 21.4546 -1e-06 0.003093 0.103456 1.85782 -10.5485 -33.499 -11.2098 173.562 43.5 -2.7e-05 4e-06 -66.4578 12.0654 6.90168 42.3723 0 1e-05 97.3871 8.84918 -19.2898 17.3 -6e-06 1.7e-05 21.4546 -1.9e-05 -0.003116 6.90197 -2.60373 -3e-06 21.1377 -1.91855 0.202712 12.5881 1e-05 8e-06 32.3331 -3.2844 1.117 12.3432 -1.8e-05 -5e-06 32.0582 -2.72768 1.27436 25.8329 2.3e-05 7e-06 6.86109 -2.64521 -5.7217 11.7666 -8e-06 -6e-06 -58.7635 -9.99951 7.15238 19.7459 -1.48035 6.0001 -167.177 29.1466 -106.559 11.2841 1.8e-05 -2e-05 19.1164 -29.9851 74.1673 33 -1.3e-05 1.9e-05 -38.6092 3.05227 -13.9833 25.2 3.2e-05 1.1e-05 -1.95155 33.4855 -6.92258 19.7461 -1.48036 -6.00008 -165.566 -25.0918 104.252 11.2841 0 -1e-06 -24.3299 27.1863 -35.1516 33.0001 1.6e-05 -1e-06 -51.7574 -10.1932 20.362 25.1998 0.000123 0.000432 -21.648 -25.0115 17.7296 
60.5161 152.026 69.4821 99.7663 -65.7364 10.6295 0.103456 1.85784 10.5485 -40.282 9.81048 -169.614 43.5 -4.2e-05 1e-05 -68.4111 -1.62281 1.6691 42.3722 1.9e-05 0 80.1665 0.0857244 10.2542 17.3 -1.42109e-14 3e-06 21.4546 -1e-06 0.003093 0.103456 1.85782 -10.5485 -26.1187 -13.6238 169.984 43.5 -2.7e-05 4e-06 -59.6244 12.3838 11.6365 42.3723 0 1e-05 96.9491 6.90782 -17.9408 17.3 -6e-06 1.7e-05 21.4546 -1.9e-05 -0.003116 6.90197 -2.60373 -3e-06 19.9252 -1.78415 1.39009 12.5881 1e-05 8e-06 29.9123 -2.64005 3.35984 12.3432 -1.8e-05 -5e-06 29.6131 -1.98098 3.4849 25.8329 2.3e-05 7e-06 8.73382 -5.45536 -5.7783 11.7666 -8e-06 -6e-06 -54.418 -10.2904 5.2849 19.7459 -1.48035 6.0001 -174.068 31.7542 -93.7516 11.2841 1.8e-05 -2e-05 11.1187 -23.6861 68.617 33 -1.3e-05 1.9e-05 -35.271 4.0088 -16.2517 25.2 3.2e-05 1.1e-05 -1.41678 32.2899 -6.12827 19.7461 -1.48036 -6.00008 -171.966 -24.1264 97.6053 11.2841 0 -1e-06 -26.6202 14.7374 -36.9238 33.0001 1.6e-05 -1e-06 -47.3998 -9.64205 20.2542 25.1998 0.000123 0.000432 -17.8048 -24.8371 17.7705 
59.2057 152.854 68.2964 100.778 -65.6116 11.7048 0.103456 1.85784 10.5485 -38.9855 8.75692 -170.806 43.5 -4.2e-05 1e-05 -60.3255 -0.91275 1.4233 42.3722 1.9e-05 0 80.6865 -0.98976 6.35338 17.3 -7.10543e-15 3e-06 21.4546 -1e-06 0.003093 0.103456 1.85782 -10.5485 -24.3101 -13.482 169.465 43.5 -2.7e-05 4e-06 -57.2492 12.7382 12.1434 42.3723 0 1e-05 96.2087 6.91475 -17.6967 17.3 -6e-06 1.7e-05 21.4546 -1.9e-05 -0.003116 6.90197 -2.60373 -3e-06 19.2058 -1.65478 1.35937 12.5881 1e-05 8e-06 28.4651 -2.43676 3.24214 12.3432 -1.8e-05 -5e-06 28.1637 -1.80625 3.36173 25.8329 2.3e-05 7e-06 8.60597 -5.89677 -5.63119 11.7666 -8e-06 -6e-06 -52.7884 -10.2496 5.27414 19.7459 -1.48035 6.0001 -174.784 30.2626 -91.3628 11.2841 1.8e-05 -2e-05 10.4619 -21.8774 69.6002 33 -1.3e-05 1.9e-05 -34.0472 3.89785 -16.7258 25.2 3.2e-05 1.1e-05 -1.03014 31.8117 -5.78459 19.7461 -1.48036 -6.00008 -173.309 -22.9566 95.9967 11.2841 -2.84217e-14 -1e-06 -27.4472 12.9191 -39.0134 33.0001 1.6e-05 -1e-06 -44.0965 -10.2203 20.1256 25.1998 0.000123 0.000432 -19.2013 -23.2884 16.2705 
